<svg xmlns="http://www.w3.org/2000/svg" data-name="Capa 1" viewBox="0 0 100 125" x="0px" y="0px"><title>engine</title><path d="M72.8,81.9H40a.91.91,0,0,1-.7-.3l-10.67-10a.11.11,0,0,0-.08,0H16.9a.4.4,0,0,1-.4-.4V59.52a.12.12,0,0,0-.12-.12H13.2a.12.12,0,0,0-.12.12V71.3a.4.4,0,0,1-.4.4h-8a.4.4,0,0,1-.4-.4V34.1a.4.4,0,0,1,.4-.4h8a.4.4,0,0,1,.4.4V45.18a.12.12,0,0,0,.12.12h3.16a.12.12,0,0,0,.12-.12V34.1a.4.4,0,0,1,.4-.4h7.3a.11.11,0,0,0,.11-.1c.32-2.19,1.54-5.1,4.89-5.1h9.08a.12.12,0,0,0,.12-.12V25.9a.11.11,0,0,0-.12-.11H28.52a.12.12,0,0,1-.12-.12V18.5a.4.4,0,0,1,.4-.4H61.7a.4.4,0,0,1,.4.4v7.17a.12.12,0,0,1-.12.12H51.42a.11.11,0,0,0-.12.11v2.48a.12.12,0,0,0,.12.12H61.5c2.3,0,4.2,0,5.4,1.2A4.17,4.17,0,0,1,68,32.8v4.08a.12.12,0,0,0,.12.12H73.8a3,3,0,0,1,2.1.7,2.59,2.59,0,0,1,.8,2.1v3.88a.12.12,0,0,0,.12.12H79a.12.12,0,0,0,.12-.12V37.4a.4.4,0,0,1,.4-.4H91a.87.87,0,0,1,.9.6,57.7,57.7,0,0,1,0,41.2.87.87,0,0,1-.9.6H79.67a.4.4,0,0,1-.41-.4V72.32a.11.11,0,0,0-.11-.12H77.52a.12.12,0,0,0-.12.12V76.8C77.4,79,76,81.9,72.8,81.9Z"/></svg>