<svg xmlns="http://www.w3.org/2000/svg" xmlns:xlink="http://www.w3.org/1999/xlink" xml:space="preserve" style="shape-rendering:geometricPrecision;text-rendering:geometricPrecision;image-rendering:optimizeQuality;" viewBox="0 0 21.9778 16.435875" x="0px" y="0px" fill-rule="evenodd" clip-rule="evenodd"><defs><style type="text/css">
   
    .fil0 {fill:black}
   
  </style></defs><g><path class="fil0" d="M6.2685 0l9.4361 0c1.519,0 2.7616,0.906 2.7616,2.0136l0 6.8275c0,1.1075 -1.2426,2.0135 -2.7616,2.0135l-9.4361 0c-1.5191,0 -2.7617,-0.906 -2.7617,-2.0135l0 -6.8275c0,-1.1076 1.2426,-2.0136 2.7617,-2.0136zm8.612 2.7849l-1.3796 -0.5825 -2.0831 2.6464 -2.1331 -0.9179 -2.1921 4.0637 2.6406 -3.04 2.1437 1.027 3.0036 -3.1967z"/><polygon class="fil0" points="14.0277,11.2727 16.3728,13.1487 10.9865,13.1487 5.6001,13.1487 7.9453,11.2727 "/><path class="fil0" d="M18.7151 1.8321c1.2363,0.0236 2.3685,0.3228 3.2627,0.8085l0 5.5734c-0.8942,0.4857 -2.0264,0.7849 -3.2627,0.8086l0 -7.1905zm1.6372 0.9109l0.1501 0 0 5.3687 -0.1501 0 0 -5.3687zm-0.275 0l0.15 0 0 5.3687 -0.15 0 0 -5.3687zm-0.5253 0l0.1501 0 0 5.3687 -0.1501 0 0 -5.3687zm-0.2876 0l0.1501 0 0 5.3687 -0.1501 0 0 -5.3687z"/><path class="fil0" d="M-0 4.9112l2.1598 0 0 -1.9384c0.3468,-0.1276 0.7258,-0.2021 1.1238,-0.2119l0 5.3329c-0.398,-0.0098 -0.777,-0.0844 -1.1238,-0.2118l0 -1.9386 -2.1598 0 0 -1.0322z"/></g><text x="0" y="28.148699999999998" fill="#000000" font-size="5px" font-weight="bold" font-family="'Helvetica Neue', Helvetica, Arial-Unicode, Arial, Sans-serif">Created by LAUREN</text><text x="0" y="33.1487" fill="#000000" font-size="5px" font-weight="bold" font-family="'Helvetica Neue', Helvetica, Arial-Unicode, Arial, Sans-serif">from the Noun Project</text></svg>