<svg xmlns="http://www.w3.org/2000/svg" xmlns:xlink="http://www.w3.org/1999/xlink" xml:space="preserve" style="shape-rendering:geometricPrecision;text-rendering:geometricPrecision;image-rendering:optimizeQuality;" viewBox="0 0 0.333331 0.41666375" x="0px" y="0px" fill-rule="evenodd" clip-rule="evenodd"><defs><style type="text/css">
   
    .fil0 {fill:black}
   
  </style></defs><g><path class="fil0" d="M0.177102 0.292445l0.0332283 0.0104921 0.0158031 -0.0155866 -0.0402992 -0.0340709 0.000393701 -0.00670079 0.0694094 0.0566772 0.0136732 -0.0363622 -0.0638701 -0.122531c3.54331e-005,-0.0135197 0.00288976,-0.0136024 -0.013126,-0.0142598 -0.000141732,-0.0169252 -0.00383858,-0.0629843 -0.0256496,-0.100028 -0.021811,0.0370433 -0.0255079,0.0831024 -0.0256496,0.100028 -0.0160157,0.00065748 -0.0131614,0.000740157 -0.013126,0.0142598l-0.0638701 0.122531 0.0136732 0.0363622 0.0694134 -0.0566772 0.000389764 0.00670079 -0.0402992 0.0340709 0.0158031 0.0155866 0.0332283 -0.0104921 0.00407874 0.00548031 0.0123819 1.9685e-005 0.00441339 -0.0055z"/></g><text x="0" y="15.333331" fill="#000000" font-size="5px" font-weight="bold" font-family="'Helvetica Neue', Helvetica, Arial-Unicode, Arial, Sans-serif">Created by awabsky</text><text x="0" y="20.333331" fill="#000000" font-size="5px" font-weight="bold" font-family="'Helvetica Neue', Helvetica, Arial-Unicode, Arial, Sans-serif">from the Noun Project</text></svg>