<svg xmlns:dc="http://purl.org/dc/elements/1.1/" xmlns:cc="http://creativecommons.org/ns#" xmlns:rdf="http://www.w3.org/1999/02/22-rdf-syntax-ns#" xmlns:svg="http://www.w3.org/2000/svg" xmlns="http://www.w3.org/2000/svg" xmlns:sodipodi="http://sodipodi.sourceforge.net/DTD/sodipodi-0.dtd" xmlns:inkscape="http://www.inkscape.org/namespaces/inkscape" viewBox="0 0 12.7 15.875" version="1.1" x="0px" y="0px"><g transform="translate(0,-284.29999)"><path style="" d="m 7.961124,288.20254 a 0.09260885,0.09260885 0 0 0 0.036,-0.18161 0.47766964,0.47766964 0 0 0 -0.5692,0.42463 v 1.34676 h -0.7798 a 0.52916666,0.52916666 0 0 0 -0.4186,0.20513 l -0.4222,0.54507 h -1.7081 a 5.0331626,5.0331626 0 0 0 -2.0042,0.4954 l -0.4711,-0.7821 h -0.7176 l 0.1485,1.1582 a 1.523237,1.523237 0 0 0 -0.502,0.30575 0.07088086,0.07088086 0 0 0 0,0.10458 1.523237,1.523237 0 0 0 0.502,0.30575 l -0.1485,1.1582 h 0.7176 l 0.4711,-0.7821 a 5.0331626,5.0331626 0 0 0 2.0042,0.4954 h 6.8423 a 1.2295403,1.2295403 0 0 0 0,-2.45908 h -1.7081 l -0.4222,-0.54507 a 0.52916666,0.52916666 0 0 0 -0.4179,-0.20513 h -0.7805 v -1.33722 a 0.29246133,0.29246133 0 0 1 0.3479,-0.25256 z" fill="#000000" stroke="none"/></g><text x="0" y="27.7" fill="#000000" font-size="5px" font-weight="bold" font-family="'Helvetica Neue', Helvetica, Arial-Unicode, Arial, Sans-serif">Created by Phạm Thanh Lộc</text><text x="0" y="32.7" fill="#000000" font-size="5px" font-weight="bold" font-family="'Helvetica Neue', Helvetica, Arial-Unicode, Arial, Sans-serif">from the Noun Project</text></svg>