<svg xmlns="http://www.w3.org/2000/svg" xmlns:xlink="http://www.w3.org/1999/xlink" version="1.1" x="0px" y="0px" viewBox="0 0 100 125" enable-background="new 0 0 100 100" xml:space="preserve"><path fill-rule="evenodd" clip-rule="evenodd" fill="#000000" d="M75.8,56.8c-1.7-2.6-3.6-3.9-3.6-4c0,0.5,0.1,1,0.1,1.5  c0,3.8-1.3,7.1-3.4,11.1c1.3-0.4,2.6-0.6,4-0.5c-0.2,5.2-3,9.2-7.1,11.4c-2.3,1.3-5.1,2.1-8,2.5c-1.8,0.3-3.5-1.1-3.6-3l-1.7-38.4  L62.7,36v-1.4v-1.4l-10.4-1.3l-0.2-4.7h1.7L53.2,24c3.8-1.3,6.6-5,6.6-9.3c0-5.4-4.4-9.9-9.9-9.9c-5.4,0-9.9,4.4-9.9,9.9  c0,4.3,2.8,8,6.6,9.3l-0.5,3.1h1.7l-0.2,4.7l-10.4,1.3v1.4V36l10.2,1.3l-1.7,38.4c-0.1,1.9-1.8,3.3-3.6,3c-3-0.4-5.7-1.2-8-2.5  c-4.1-2.3-6.8-6.2-7.1-11.4c1.4-0.1,2.8,0.1,4,0.5c-2-4-3.4-7.3-3.4-11.1c0-0.5,0-1,0.1-1.5c0,0.1-1.8,1.4-3.6,4  c-1.7,2.5-3.3,6.4-2.8,9.8c1-0.6,2-1.1,3.1-1.4c0.3,7,3,14.5,7.3,17.2c2.4,1.6,5.3,2.4,8.5,2.8c3.2,0.4,6,2.4,7.4,5.3l2.3,4.6H50  l2.3-4.6c1.4-2.9,4.2-4.9,7.4-5.3c3.3-0.4,6.1-1.3,8.5-2.8c4.3-2.7,6.9-10.2,7.3-17.2c1.1,0.3,2.1,0.8,3.1,1.4  C79.1,63.2,77.5,59.4,75.8,56.8z M42.7,14.7c0-4,3.3-7.3,7.3-7.3c4,0,7.3,3.3,7.3,7.3c0,3-1.9,5.6-4.5,6.7l-0.3-1.5h-5.1l-0.3,1.5  C44.6,20.3,42.7,17.7,42.7,14.7z"/><text x="0" y="115" fill="#000000" font-size="5px" font-weight="bold" font-family="'Helvetica Neue', Helvetica, Arial-Unicode, Arial, Sans-serif">Created by Alvaro Cabrera</text><text x="0" y="120" fill="#000000" font-size="5px" font-weight="bold" font-family="'Helvetica Neue', Helvetica, Arial-Unicode, Arial, Sans-serif">from the Noun Project</text></svg>